<svg width="10" height="10" viewBox="0 0 10 10" fill="none" xmlns="http://www.w3.org/2000/svg">
<g clip-path="url(#clip0_1_4124)">
<path d="M7.29873 5.23165C7.29483 4.56564 7.59659 4.06368 8.20596 3.69357C7.86514 3.20528 7.34952 2.93673 6.66983 2.88497C6.02627 2.83419 5.32217 3.25997 5.06436 3.25997C4.7919 3.25997 4.16885 2.90255 3.67862 2.90255C2.6669 2.91817 1.5917 3.70919 1.5917 5.31857C1.5917 5.79415 1.67862 6.28536 1.85244 6.79122C2.08487 7.45724 2.92276 9.08908 3.79678 9.06271C4.25381 9.05197 4.57705 8.73849 5.17178 8.73849C5.74893 8.73849 6.04776 9.06271 6.55752 9.06271C7.43936 9.05001 8.19717 7.56661 8.41788 6.89864C7.23526 6.34103 7.29873 5.26583 7.29873 5.23165ZM6.27237 2.25313C6.76748 1.66524 6.72256 1.13009 6.70791 0.937705C6.27041 0.963095 5.76455 1.23556 5.47647 1.57052C5.15909 1.92989 4.97256 2.37423 5.0126 2.87521C5.48526 2.91134 5.9169 2.66817 6.27237 2.25313Z" fill="#313131"/>
</g>
<defs>
<clipPath id="clip0_1_4124">
<rect width="9.31958" height="9.31958" fill="white" transform="scale(1.07301)"/>
</clipPath>
</defs>
</svg>
