<svg width="10" height="10" viewBox="0 0 10 10" fill="none" xmlns="http://www.w3.org/2000/svg">
<g clip-path="url(#clip0_1_4118)">
<path d="M9.08587 4.1842H8.75024V4.16691H5.00024V5.83358H7.35503C7.01149 6.80378 6.08837 7.50024 5.00024 7.50024C3.61962 7.50024 2.50024 6.38087 2.50024 5.00024C2.50024 3.61962 3.61962 2.50024 5.00024 2.50024C5.63753 2.50024 6.21733 2.74066 6.65878 3.13337L7.83733 1.95482C7.09316 1.26128 6.09774 0.833573 5.00024 0.833573C2.6992 0.833573 0.833573 2.6992 0.833573 5.00024C0.833573 7.30128 2.6992 9.16691 5.00024 9.16691C7.30128 9.16691 9.16691 7.30128 9.16691 5.00024C9.16691 4.72087 9.13816 4.44816 9.08587 4.1842Z" fill="#FFC107"/>
<path d="M1.31376 3.06087L2.68271 4.06482C3.05313 3.14774 3.95022 2.50024 5.00001 2.50024C5.6373 2.50024 6.21709 2.74066 6.65855 3.13337L7.83709 1.95482C7.09292 1.26128 6.09751 0.833573 5.00001 0.833573C3.39959 0.833573 2.01167 1.73712 1.31376 3.06087Z" fill="#FF3D00"/>
<path d="M5.00034 9.16692C6.07659 9.16692 7.05451 8.75505 7.79388 8.08526L6.5043 6.994C6.07191 7.32284 5.54356 7.50069 5.00034 7.50026C3.91659 7.50026 2.99638 6.80921 2.64972 5.84484L1.29096 6.89171C1.98055 8.24109 3.38097 9.16692 5.00034 9.16692Z" fill="#4CAF50"/>
<path d="M9.08576 4.18411H8.75013V4.16682H5.00013V5.83349H7.35492C7.19059 6.29524 6.89458 6.69873 6.50346 6.99411L6.50409 6.9937L7.79367 8.08495C7.70242 8.16786 9.1668 7.08349 9.1668 5.00015C9.1668 4.72078 9.13805 4.44807 9.08576 4.18411Z" fill="#1976D2"/>
</g>
<defs>
<clipPath id="clip0_1_4118">
<rect width="9.31958" height="9.31958" fill="white" transform="scale(1.07301)"/>
</clipPath>
</defs>
</svg>
