<svg width="13" height="12" viewBox="0 0 13 12" fill="none" xmlns="http://www.w3.org/2000/svg">
<path d="M2.29474 1.49957C4.03937 -0.0327015 6.64423 -0.398296 8.7894 0.437731C11.862 1.53989 13.6389 5.18776 12.7867 8.30337C12.4131 9.59908 11.6873 10.7496 10.991 11.8921C10.3566 10.8007 9.46145 9.89478 8.35661 9.27919C9.25177 8.34101 9.85662 6.94046 9.24102 5.68777C8.50446 3.70926 5.60121 3.12861 4.22755 4.77378C2.93721 6.04261 3.31087 8.11789 4.50174 9.31413C3.39958 9.84908 2.55818 10.7604 2.04205 11.8652C0.816233 10.341 -0.164956 8.46467 0.0232168 6.44852C-0.0789344 4.54529 0.896879 2.73882 2.29474 1.49957Z" fill="#3869EB"/>
</svg>
